<?xml version="1.0" encoding="UTF-8"?>
<svg id="Layer_2" data-name="Layer 2" xmlns="http://www.w3.org/2000/svg" viewBox="0 0 358.68 358.68">
  <defs>
    <style>
      .cls-1 {
        fill: #fff;
      }
    </style>
  </defs>
  <g id="Layer_1-2" data-name="Layer 1">
    <g>
      <rect class="cls-1" x="0" y="0" width="358.68" height="358.68"/>
      <path d="M186.84,277.51l44.25-72.02-33.46,7.15-5.54,1.32,2.19-3.65h0s-6.75-33.83-6.75-33.83l45.3-44.37,21.04-5.21-12.41,12.41,45.33-8.89,12.41-13.41v-28.24H83.89l-12.41,12.41,18.57,61.38,88.11-20.51-44.1,39.93-29.27,107.93h69.64l12.41-12.4h0ZM177.44,276.51h-58.93l28.25-104.15,45.9-42.31,2.79-2.57-3.69.86-88.6,20.63-17.92-59.2h212.96v26.43l-40.07,8.73,6.94-5.22,4.01-3.02-4.86,1.25-24.65,6.33-.26.07-.19.19-52.29,51.23-.39.38.11.53,6.6,33.08-11.32,5.65-7.79,3.89,8.47-2.02,15.32-3.66,31.18-6.66-42.73,69.56h-8.85Z"/>
    </g>
  </g>
</svg>